<svg width="110" height="24" fill="none" xmlns="http://www.w3.org/2000/svg">
  <g filter="url(#prefix__filter0_d)">
    <circle cx="11.5" cy="12" r="7.5" fill="#D91818" />
  </g>
  <path
    d="M29.976 6.04h2.352v11.344h3.152V19h-5.504V6.04zm6.654.432h2.176V8.28H36.63V6.472zm0 3.28h2.176V19H36.63V9.752zm3.281 0h2.112l.944 6.64.928-6.64h2.096L44.151 19h-2.416l-1.824-9.248zm9.893 9.392c-1.024 0-1.776-.283-2.256-.848-.48-.576-.72-1.424-.72-2.544V13c0-1.13.24-1.979.72-2.544.49-.565 1.242-.848 2.256-.848 1.045 0 1.781.293 2.208.88.437.587.656 1.472.656 2.656v1.328h-3.68v1.824c0 .448.064.773.192.976.139.203.352.304.64.304.277 0 .474-.096.592-.288.128-.203.192-.507.192-.912v-.784h2.048v.64c0 .95-.24 1.675-.72 2.176-.48.49-1.19.736-2.128.736zm.8-5.744v-.88c0-.48-.059-.821-.176-1.024-.117-.213-.325-.32-.624-.32-.31 0-.523.112-.64.336-.117.224-.176.64-.176 1.248v.64h1.616zm7.575-7.36h2.352v11.344h3.152V19H58.18V6.04zm6.654.432h2.177V8.28h-2.177V6.472zm0 3.28h2.177V19h-2.177V9.752zm3.905 0h2.176v.912c.736-.704 1.483-1.056 2.24-1.056.523 0 .912.192 1.168.576.267.384.4.87.4 1.456V19h-2.176v-6.928c0-.299-.048-.517-.144-.656-.085-.139-.245-.208-.48-.208-.256 0-.592.15-1.008.448V19h-2.176V9.752zm7.61-3.728h2.16v7.456l2.368-3.728h2.384l-2.32 3.712L83.212 19h-2.288l-1.68-4.56-.736 1.024v3.52h-2.16V6.024zm11.8.016H90.5v11.344h3.152V19h-5.504V6.04zm6.654.432h2.176V8.28h-2.176V6.472zm0 3.28h2.176V19h-2.176V9.752zm6.417 9.392c-.779 0-1.419-.208-1.92-.624-.501-.416-.859-1.024-1.072-1.824l1.616-.624c.245 1.035.693 1.552 1.344 1.552.245 0 .432-.064.56-.192.139-.128.208-.304.208-.528 0-.245-.075-.47-.224-.672-.149-.213-.416-.48-.8-.8l-1.104-.96c-.47-.384-.816-.757-1.04-1.12-.224-.363-.336-.805-.336-1.328 0-.725.245-1.307.736-1.744.501-.448 1.131-.672 1.888-.672.725 0 1.317.219 1.776.656.459.427.757 1.008.896 1.744l-1.424.608c-.085-.427-.229-.773-.432-1.04-.192-.277-.443-.416-.752-.416a.736.736 0 00-.544.208.748.748 0 00-.192.528c0 .17.075.352.224.544.149.192.373.416.672.672l1.12 1.024c.48.416.848.816 1.104 1.2.267.373.4.827.4 1.36 0 .779-.256 1.381-.768 1.808-.501.427-1.147.64-1.936.64zm6.566-.032c-.842 0-1.44-.203-1.792-.608-.341-.405-.512-1.008-.512-1.808v-5.52h-.928V9.752h.928V6.984h2.192v2.768h1.392v1.424h-1.392v5.328c0 .31.064.533.192.672.139.139.352.208.64.208.267 0 .491-.021.672-.064V19c-.426.075-.89.112-1.392.112z"
    fill="#000" />
  <defs>
    <filter id="prefix__filter0_d" x="0" y=".5" width="23" height="23" filterUnits="userSpaceOnUse"
      color-interpolation-filters="sRGB">
      <feFlood flood-opacity="0" result="BackgroundImageFix" />
      <feColorMatrix in="SourceAlpha" values="0 0 0 0 0 0 0 0 0 0 0 0 0 0 0 0 0 0 127 0" />
      <feMorphology radius="1" operator="dilate" in="SourceAlpha" result="effect1_dropShadow" />
      <feOffset />
      <feGaussianBlur stdDeviation="1.5" />
      <feColorMatrix values="0 0 0 0 1 0 0 0 0 0 0 0 0 0 0 0 0 0 0.4 0" />
      <feBlend in2="BackgroundImageFix" result="effect1_dropShadow" />
      <feBlend in="SourceGraphic" in2="effect1_dropShadow" result="shape" />
    </filter>
  </defs>
</svg>